<svg width="1440" height="663" viewBox="0 0 1440 663" fill="none" xmlns="http://www.w3.org/2000/svg">
<g filter="url(#filter0_d)">
<path d="M0 0H1440V104.272L1378.2 217.493C1308.11 345.888 1173.41 425.778 1027.02 425.778H894.837C810.446 425.778 728.218 452.441 659.915 501.953L553.869 578.824C404.575 687.046 200.558 679.249 59.9767 559.948L0 509.05V0Z" fill="url(#paint0_linear)"/>
<path d="M0.5 0.5H1439.5V104.145L1377.76 217.254C1307.76 345.487 1173.23 425.278 1027.02 425.278H894.837C810.341 425.278 728.009 451.974 659.621 501.548L553.576 578.419C404.468 686.506 200.706 678.718 60.3002 559.567L0.5 508.819V0.5Z" stroke="black"/>
</g>
<defs>
<filter id="filter0_d" x="-4" y="0" width="1448" height="663" filterUnits="userSpaceOnUse" color-interpolation-filters="sRGB">
<feFlood flood-opacity="0" result="BackgroundImageFix"/>
<feColorMatrix in="SourceAlpha" type="matrix" values="0 0 0 0 0 0 0 0 0 0 0 0 0 0 0 0 0 0 127 0" result="hardAlpha"/>
<feOffset dy="4"/>
<feGaussianBlur stdDeviation="2"/>
<feComposite in2="hardAlpha" operator="out"/>
<feColorMatrix type="matrix" values="0 0 0 0 0 0 0 0 0 0 0 0 0 0 0 0 0 0 0.25 0"/>
<feBlend mode="normal" in2="BackgroundImageFix" result="effect1_dropShadow"/>
<feBlend mode="normal" in="SourceGraphic" in2="effect1_dropShadow" result="shape"/>
</filter>
<linearGradient id="paint0_linear" x1="31" y1="68.7909" x2="1412.52" y2="119.271" gradientUnits="userSpaceOnUse">
<stop stop-color="#255D8B"/>
<stop offset="1" stop-color="#3A80BA"/>
</linearGradient>
</defs>
</svg>
